<svg width="49" height="48" viewBox="0 0 49 48" fill="none" xmlns="http://www.w3.org/2000/svg">
<g clip-path="url(#clip0_791_549)">
<path d="M36.0205 24.0763C36.0205 21.9771 35.5085 20.0443 34.4845 18.2779C33.4605 16.5115 32.0653 15.1035 30.2989 14.0539C28.5325 13.0043 26.5997 12.4795 24.5005 12.4795C22.4013 12.4795 20.4685 13.0043 18.7021 14.0539C16.9357 15.1035 15.5405 16.5115 14.5165 18.2779C13.4925 20.0443 12.9805 21.9771 12.9805 24.0763C12.9805 25.9707 13.4029 27.7371 14.2477 29.3755C15.0925 31.0139 16.2573 32.3707 17.7421 33.4459C19.2269 34.5211 20.8909 35.2123 22.7341 35.5195V27.4555H19.7389V24.0763H22.7341V21.5419C22.7341 20.1083 23.1181 18.9947 23.8861 18.2011C24.6541 17.4075 25.7037 17.0107 27.0349 17.0107C27.5469 17.0107 28.1357 17.0363 28.8013 17.0875L29.6461 17.2411V20.0827H28.1869C27.5213 20.0827 27.0349 20.2491 26.7277 20.5819C26.4205 20.9147 26.2669 21.3627 26.2669 21.9259V24.0763H29.4925L28.9549 27.4555H26.2669V35.5195C28.1101 35.2123 29.7741 34.5211 31.2589 33.4459C32.7437 32.3707 33.9085 31.0139 34.7533 29.3755C35.5981 27.7371 36.0205 25.9707 36.0205 24.0763Z" fill="#003A87"/>
</g>
<defs>
<clipPath id="clip0_791_549">
<rect width="23.04" height="23.04" fill="white" transform="matrix(1 0 0 -1 12.9805 35.5195)"/>
</clipPath>
</defs>
</svg>
