<svg width="49" height="48" viewBox="0 0 49 48" fill="none" xmlns="http://www.w3.org/2000/svg">
<g clip-path="url(#clip0_791_552)">
<path d="M24.5005 12.4795C22.3501 12.4795 20.7501 12.5051 19.7005 12.5563C18.6509 12.6075 17.7421 12.7867 16.9741 13.0939C16.2061 13.4011 15.5277 13.8491 14.9389 14.4379C14.3501 15.0267 13.9021 15.7051 13.5949 16.4731C13.2877 17.2411 13.1085 18.1499 13.0573 19.1995C13.0061 20.2491 12.9805 21.8491 12.9805 23.9995C12.9805 26.1499 13.0061 27.7499 13.0573 28.7995C13.1085 29.8491 13.2877 30.7579 13.5949 31.5259C13.9021 32.2939 14.3501 32.9723 14.9389 33.5611C15.5277 34.1499 16.2061 34.5979 16.9741 34.9051C17.7421 35.2123 18.6509 35.3915 19.7005 35.4427C20.7501 35.4939 22.3501 35.5195 24.5005 35.5195C26.6509 35.5195 28.2509 35.4939 29.3005 35.4427C30.3501 35.3915 31.2589 35.2123 32.0269 34.9051C32.7949 34.5979 33.4733 34.1499 34.0621 33.5611C34.6509 32.9723 35.0989 32.2939 35.4061 31.5259C35.7133 30.7579 35.8925 29.8491 35.9437 28.7995C35.9949 27.7499 36.0205 26.1499 36.0205 23.9995C36.0205 21.8491 35.9949 20.2491 35.9437 19.1995C35.8925 18.1499 35.7133 17.2411 35.4061 16.4731C35.0989 15.7051 34.6509 15.0267 34.0621 14.4379C33.4733 13.8491 32.7949 13.4011 32.0269 13.0939C31.2589 12.7867 30.3501 12.6075 29.3005 12.5563C28.2509 12.5051 26.6509 12.4795 24.5005 12.4795ZM23.5021 14.5531H24.5005C26.6509 14.5531 28.2125 14.5787 29.1853 14.6299C30.0045 14.6811 30.6829 14.8091 31.2205 15.0139C31.7581 15.2187 32.2189 15.5131 32.6029 15.8971C32.9869 16.2811 33.2813 16.7419 33.4861 17.2795C33.6909 17.8171 33.8189 18.4955 33.8701 19.3147C33.9213 20.2875 33.9469 21.8491 33.9469 23.9995C33.9469 26.1499 33.9213 27.7115 33.8701 28.6843C33.8189 29.5035 33.6909 30.1819 33.4861 30.7195C33.2813 31.2571 32.9869 31.7179 32.6029 32.1019C32.2189 32.4859 31.7581 32.7803 31.2205 32.9851C30.6829 33.1899 30.0045 33.3179 29.1853 33.3691C28.1613 33.4203 26.5997 33.4459 24.5005 33.4459C22.4013 33.4459 20.8397 33.4203 19.8157 33.3691C18.9965 33.3179 18.3181 33.1899 17.7805 32.9851C17.2429 32.7803 16.7821 32.4859 16.3981 32.1019C16.0141 31.7179 15.7197 31.2571 15.5149 30.7195C15.3101 30.1819 15.1821 29.5035 15.1309 28.6843C15.0797 27.6603 15.0541 26.0859 15.0541 23.9611C15.0541 21.8363 15.0797 20.2875 15.1309 19.3147C15.1821 18.4955 15.3101 17.8171 15.5149 17.2795C15.7197 16.7419 16.0141 16.2811 16.3981 15.8971C16.7821 15.5131 17.2429 15.2187 17.7805 15.0139C18.3181 14.8091 19.0221 14.6811 19.8925 14.6299C20.7629 14.5787 21.9661 14.5531 23.5021 14.5531ZM30.6445 16.4731C30.2861 16.4731 29.9661 16.6011 29.6845 16.8571C29.4029 17.1131 29.2621 17.4331 29.2621 17.8171C29.2621 18.2011 29.4029 18.5339 29.6845 18.8155C29.9661 19.0971 30.2989 19.2379 30.6829 19.2379C31.0669 19.2379 31.3869 19.0971 31.6429 18.8155C31.8989 18.5339 32.0269 18.2011 32.0269 17.8171C32.0269 17.4331 31.8989 17.1131 31.6429 16.8571C31.3869 16.6011 31.0541 16.4731 30.6445 16.4731ZM24.5005 18.0859C23.4253 18.0859 22.4269 18.3419 21.5053 18.8539C20.5837 19.3659 19.8541 20.0827 19.3165 21.0043C18.7789 21.9259 18.5101 22.9243 18.5101 23.9995C18.5101 25.0747 18.7789 26.0731 19.3165 26.9947C19.8541 27.9163 20.5837 28.6331 21.5053 29.1451C22.4269 29.6571 23.4253 29.9131 24.5005 29.9131C25.5757 29.9131 26.5613 29.6443 27.4573 29.1067C28.3533 28.5691 29.0573 27.8523 29.5693 26.9563C30.0813 26.0603 30.3373 25.0747 30.3373 23.9995C30.3373 22.9243 30.0813 21.9387 29.5693 21.0427C29.0573 20.1467 28.3533 19.4299 27.4573 18.8923C26.5613 18.3547 25.5757 18.0859 24.5005 18.0859ZM24.5005 20.1595C25.1661 20.1595 25.8061 20.3259 26.4205 20.6587C27.0349 20.9915 27.5085 21.4651 27.8413 22.0795C28.1741 22.6939 28.3405 23.3339 28.3405 23.9995C28.3405 24.6651 28.1741 25.3051 27.8413 25.9195C27.5085 26.5339 27.0349 27.0075 26.4205 27.3403C25.8061 27.6731 25.1661 27.8395 24.5005 27.8395C23.4253 27.8395 22.5165 27.4683 21.7741 26.7259C21.0317 25.9835 20.6605 25.0747 20.6605 23.9995C20.6605 22.9243 21.0317 22.0155 21.7741 21.2731C22.5165 20.5307 23.4253 20.1595 24.5005 20.1595Z" fill="#003A87"/>
</g>
<defs>
<clipPath id="clip0_791_552">
<rect width="23.04" height="23.04" fill="white" transform="matrix(1 0 0 -1 12.9805 35.5195)"/>
</clipPath>
</defs>
</svg>
