<svg width="88" height="88" viewBox="0 0 88 88" fill="none" xmlns="http://www.w3.org/2000/svg">
<path d="M42.2922 2.80228C43.0716 1.52338 44.9284 1.52338 45.7078 2.80228L55.1623 18.3156C55.5724 18.9885 56.3394 19.3579 57.1212 19.259L75.1449 16.9784C76.6307 16.7904 77.7884 18.2421 77.2745 19.6489L71.0405 36.7131C70.77 37.4533 70.9595 38.2833 71.5243 38.8328L84.5448 51.5023C85.6182 52.5468 85.2051 54.3571 83.7848 54.8324L66.5565 60.5978C65.8093 60.8479 65.2785 61.5135 65.201 62.2977L63.4137 80.3769C63.2664 81.8673 61.5934 82.6729 60.3363 81.8589L45.0871 71.984C44.4257 71.5556 43.5743 71.5556 42.9129 71.984L27.6637 81.8589C26.4066 82.6729 24.7336 81.8673 24.5863 80.3769L22.799 62.2977C22.7215 61.5135 22.1907 60.8479 21.4435 60.5978L4.21522 54.8324C2.79495 54.3571 2.38176 52.5468 3.45516 51.5023L16.4757 38.8328C17.0405 38.2833 17.23 37.4533 16.9595 36.7131L10.7255 19.6489C10.2116 18.2421 11.3693 16.7904 12.8551 16.9784L30.8788 19.259C31.6606 19.3579 32.4276 18.9885 32.8377 18.3156L42.2922 2.80228Z" fill="#E76C0F"/>
<path d="M27.5 45.8827L37.5752 55.5L61 35" stroke="white" stroke-width="4.5" stroke-linecap="round"/>
</svg>
